<svg id="visual" viewBox="0 0 900 600" width="900" height="600" xmlns="http://www.w3.org/2000/svg" xmlns:xlink="http://www.w3.org/1999/xlink" version="1.1"><rect x="0" y="0" width="900" height="600" fill="#2C2C2C"></rect><defs><linearGradient id="grad1_0" x1="33.3%" y1="100%" x2="100%" y2="0%"><stop offset="20%" stop-color="#689d69" stop-opacity="1"></stop><stop offset="80%" stop-color="#689d69" stop-opacity="1"></stop></linearGradient></defs><defs><linearGradient id="grad1_1" x1="33.3%" y1="100%" x2="100%" y2="0%"><stop offset="20%" stop-color="#689d69" stop-opacity="1"></stop><stop offset="80%" stop-color="#547554" stop-opacity="1"></stop></linearGradient></defs><defs><linearGradient id="grad1_2" x1="33.3%" y1="100%" x2="100%" y2="0%"><stop offset="20%" stop-color="#404f40" stop-opacity="1"></stop><stop offset="80%" stop-color="#547554" stop-opacity="1"></stop></linearGradient></defs><defs><linearGradient id="grad1_3" x1="33.3%" y1="100%" x2="100%" y2="0%"><stop offset="20%" stop-color="#404f40" stop-opacity="1"></stop><stop offset="80%" stop-color="#2c2c2c" stop-opacity="1"></stop></linearGradient></defs><defs><linearGradient id="grad2_0" x1="0%" y1="100%" x2="66.7%" y2="0%"><stop offset="20%" stop-color="#689d69" stop-opacity="1"></stop><stop offset="80%" stop-color="#689d69" stop-opacity="1"></stop></linearGradient></defs><defs><linearGradient id="grad2_1" x1="0%" y1="100%" x2="66.7%" y2="0%"><stop offset="20%" stop-color="#547554" stop-opacity="1"></stop><stop offset="80%" stop-color="#689d69" stop-opacity="1"></stop></linearGradient></defs><defs><linearGradient id="grad2_2" x1="0%" y1="100%" x2="66.7%" y2="0%"><stop offset="20%" stop-color="#547554" stop-opacity="1"></stop><stop offset="80%" stop-color="#404f40" stop-opacity="1"></stop></linearGradient></defs><defs><linearGradient id="grad2_3" x1="0%" y1="100%" x2="66.7%" y2="0%"><stop offset="20%" stop-color="#2c2c2c" stop-opacity="1"></stop><stop offset="80%" stop-color="#404f40" stop-opacity="1"></stop></linearGradient></defs><g transform="translate(900, 600)"><path d="M-486.7 0C-439.8 -29.7 -392.8 -59.4 -391.2 -104.8C-389.6 -150.3 -433.3 -211.5 -421.5 -243.4C-409.8 -275.2 -342.6 -277.7 -306.9 -306.9C-271.1 -336.1 -266.7 -392 -238.5 -413.1C-210.3 -434.2 -158.1 -420.5 -114.4 -426.9C-70.7 -433.4 -35.3 -460.1 0 -486.7L0 0Z" fill="#363d36"></path><path d="M-365.1 0C-329.8 -22.3 -294.6 -44.5 -293.4 -78.6C-292.2 -112.7 -325 -158.6 -316.2 -182.5C-307.4 -206.4 -257 -208.3 -230.2 -230.2C-203.3 -252.1 -200.1 -294 -178.9 -309.8C-157.7 -325.6 -118.6 -315.4 -85.8 -320.2C-53 -325.1 -26.5 -345.1 0 -365.1L0 0Z" fill="#4a624a"></path><path d="M-243.4 0C-219.9 -14.8 -196.4 -29.7 -195.6 -52.4C-194.8 -75.1 -216.6 -105.8 -210.8 -121.7C-204.9 -137.6 -171.3 -138.8 -153.4 -153.4C-135.6 -168 -133.4 -196 -119.3 -206.5C-105.1 -217.1 -79.1 -210.2 -57.2 -213.5C-35.3 -216.7 -17.7 -230 0 -243.4L0 0Z" fill="#5e895e"></path><path d="M-121.7 0C-109.9 -7.4 -98.2 -14.8 -97.8 -26.2C-97.4 -37.6 -108.3 -52.9 -105.4 -60.8C-102.5 -68.8 -85.7 -69.4 -76.7 -76.7C-67.8 -84 -66.7 -98 -59.6 -103.3C-52.6 -108.5 -39.5 -105.1 -28.6 -106.7C-17.7 -108.4 -8.8 -115 0 -121.7L0 0Z" fill="#689d69"></path></g><g transform="translate(0, 0)"><path d="M486.7 0C493.5 48.1 500.2 96.2 470.2 126C440.1 155.8 373.3 167.3 349 201.5C324.7 235.7 342.9 292.7 326.7 326.7C310.5 360.7 260 371.6 218 377.6C176 383.5 142.6 384.5 107.7 401.8C72.8 419.2 36.4 453 0 486.7L0 0Z" fill="#363d36"></path><path d="M365.1 0C370.1 36.1 375.2 72.1 352.6 94.5C330.1 116.8 280 125.4 261.8 151.1C243.5 176.8 257.1 219.5 245 245C232.9 270.5 195 278.7 163.5 283.2C132 287.7 106.9 288.4 80.8 301.4C54.6 314.4 27.3 339.7 0 365.1L0 0Z" fill="#4a624a"></path><path d="M243.4 0C246.7 24 250.1 48.1 235.1 63C220.1 77.9 186.7 83.6 174.5 100.7C162.3 117.9 171.4 146.4 163.3 163.3C155.3 180.3 130 185.8 109 188.8C88 191.8 71.3 192.2 53.8 200.9C36.4 209.6 18.2 226.5 0 243.4L0 0Z" fill="#5e895e"></path><path d="M121.7 0C123.4 12 125.1 24 117.5 31.5C110 38.9 93.3 41.8 87.3 50.4C81.2 58.9 85.7 73.2 81.7 81.7C77.6 90.2 65 92.9 54.5 94.4C44 95.9 35.6 96.1 26.9 100.5C18.2 104.8 9.1 113.2 0 121.7L0 0Z" fill="#689d69"></path></g></svg>